<svg width="0" height="0" class="hidden">
  <symbol  xmlns="http://www.w3.org/2000/svg" viewBox="0 0 18 18" id="facebook">
    <path fill-rule="evenodd" clip-rule="evenodd" d="M8.92.23a8.672 8.672 0 011.355 17.239v-6.06h2.02l.385-2.507h-2.405V7.276c0-.514.19-1.02.738-1.24.11-.043.233-.076.371-.095.095-.013.196-.02.304-.02h1.094V3.788s-.992-.169-1.941-.169c-.495 0-.948.075-1.348.222a2.927 2.927 0 00-.651.333c-.807.554-1.277 1.51-1.277 2.819v1.91H5.364v2.507h2.201v6.06A8.672 8.672 0 018.92.23z" ></path>
  </symbol>
  <symbol  xmlns="http://www.w3.org/2000/svg" viewBox="0 0 15 15" id="instagramm">
    <path fill-rule="evenodd" clip-rule="evenodd" d="M7.095.807H4.113c-.598 0-1.125.142-1.523.25l-.225.059c-.514.206-.925.411-1.234.822-.411.412-.617.823-.823 1.234C.103 3.584 0 4.201 0 4.92v5.964c0 .599.142 1.126.25 1.523l.058.226c.206.514.412.925.823 1.234.411.308.823.616 1.234.822.411.206 1.028.309 1.748.309h5.964c.598 0 1.126-.143 1.523-.25l.225-.059c.514-.206.926-.411 1.234-.822.309-.412.617-.823.823-1.235.205-.41.308-1.028.308-1.748V4.92c0-.598-.142-1.125-.249-1.522l-.06-.226c-.205-.514-.41-.925-.822-1.234-.411-.41-.822-.616-1.234-.822-.411-.206-1.028-.309-1.748-.309H7.095zm4.73 3.394a.811.811 0 01-.823.822c-.411 0-.822-.411-.822-.822 0-.515.41-.823.822-.823s.823.308.823.823zm-4.73 6.17c-1.337 0-2.365-1.03-2.365-2.366 0-1.337 1.028-2.365 2.365-2.365 1.336 0 2.365 1.028 2.365 2.365 0 1.337-1.029 2.365-2.365 2.365zm0-6.068a3.686 3.686 0 00-3.702 3.702 3.686 3.686 0 003.702 3.702 3.686 3.686 0 003.701-3.702 3.686 3.686 0 00-3.701-3.702z" ></path>
  </symbol>
  <symbol  xmlns="http://www.w3.org/2000/svg" viewBox="0 0 16 16" id="ok">
    <g clip-path="url(#clip0)" >
      <path d="M3.147 8.587c-.408.804.056 1.188 1.114 1.844.9.556 2.144.759 2.942.84L4.056 14.3c-.916.878.559 2.286 1.474 1.427l2.478-2.39c.949.913 1.858 1.787 2.478 2.393.916.863 2.39-.534 1.484-1.427l-3.157-3.027c.808-.082 2.033-.297 2.922-.841 1.058-.66 1.522-1.043 1.12-1.847-.244-.456-.9-.837-1.773-.178 0 0-1.18.904-3.081.904-1.903 0-3.082-.904-3.082-.904-.872-.662-1.531-.278-1.772.178z"></path>
      <path d="M8 8.095c2.318 0 4.211-1.812 4.211-4.043C12.211 1.812 10.318 0 8 0S3.787 1.812 3.787 4.052c0 2.23 1.893 4.043 4.212 4.043zm0-6.042c1.139 0 2.068.894 2.068 1.999 0 1.096-.93 1.99-2.069 1.99-1.139 0-2.068-.894-2.068-1.99-.001-1.106.928-2 2.068-2z"></path>
    </g>
    <defs>
      <clipPath id="clip0">
        <path fill="#fff" d="M0 0h16v16H0z"></path>
      </clipPath>
    </defs>
  </symbol>
  <symbol  xmlns="http://www.w3.org/2000/svg" viewBox="0 0 14 11" id="twitter">
    <path d="M12.35 1.74A5.92 5.92 0 0014 1.307a5.472 5.472 0 01-1.436 1.434c.009.117.009.234.009.36 0 3.67-2.891 7.899-8.17 7.899A8.351 8.351 0 010 9.756c.224.027.457.036.69.036a5.853 5.853 0 003.563-1.19c-1.25-.027-2.313-.83-2.677-1.93.177.036.355.045.541.045.261 0 .513-.036.756-.099C1.558 6.366.569 5.248.569 3.904v-.036c.392.207.83.334 1.306.343A2.735 2.735 0 01.597 1.902c0-.504.14-.982.392-1.397a8.272 8.272 0 005.913 2.903 2.85 2.85 0 01-.075-.63C6.827 1.244 8.115 0 9.7 0c.821 0 1.567.334 2.099.875a5.703 5.703 0 001.819-.677c-.215.65-.672 1.2-1.269 1.542z" ></path>
  </symbol>
  <symbol  xmlns="http://www.w3.org/2000/svg" viewBox="0 0 18 9" id="vk">
    <path d="M17.182 8.965l-2.404.027s-.514.09-1.202-.324c-.904-.54-1.746-1.944-2.414-1.764-.668.189-.647 1.449-.647 1.449s0 .27-.144.414c-.164.162-.493.198-.493.198H8.81s-2.373.125-4.47-1.782C2.061 5.104.047.973.047.973S-.066.704.057.57C.202.425.582.416.582.416L3.15.398s.246.036.41.144c.155.099.237.27.237.27s.41.918.965 1.754c1.079 1.63 1.572 1.98 1.942 1.81.534-.253.37-2.304.37-2.304s.01-.738-.267-1.071C6.59.74 6.19.668 6.005.65c-.143-.018.093-.315.401-.441C6.868.01 7.69-.007 8.656.002c.75.009.965.045 1.263.108.884.189.586.909.586 2.645 0 .558-.113 1.341.349 1.602.195.108.678.018 1.88-1.773.575-.845.996-1.853.996-1.853s.093-.18.237-.252c.143-.081.349-.054.349-.054l2.712-.018s.811-.09.945.234c.133.342-.308 1.125-1.407 2.42-1.819 2.124-2.014 1.926-.514 3.15 1.438 1.17 1.736 1.746 1.787 1.809.596.873-.657.945-.657.945z" ></path>
  </symbol>
  <symbol  xmlns="http://www.w3.org/2000/svg" viewBox="0 0 14 14" id="youtube">
    <path d="M13.405 3.115c-.38-.676-.792-.8-1.631-.847-.838-.057-2.946-.08-4.772-.08-1.83 0-3.939.023-4.776.08-.837.047-1.25.17-1.634.847C.202 3.79 0 4.952 0 6.997v.007c0 2.037.201 3.208.592 3.876.384.675.796.798 1.633.855.838.049 2.947.078 4.777.078 1.826 0 3.934-.03 4.773-.078.839-.056 1.251-.179 1.63-.854.396-.668.595-1.839.595-3.876v-.007c0-2.046-.2-3.208-.595-3.883zM5.25 9.625v-5.25L9.625 7 5.25 9.625z" ></path>
  </symbol>
  <symbol  xmlns="http://www.w3.org/2000/svg" viewBox="0 0 36 56" id="left-button">
    <path  d="M36 0H0v56h36z"></path>
    <path fill-rule="evenodd" clip-rule="evenodd" d="M25 42h-6.939L10 28l8.061-14H25l-8.061 14L25 42z" fill="#fff"></path>
  </symbol>
  <symbol  xmlns="http://www.w3.org/2000/svg" viewBox="0 0 36 56" id="right-button">
    <path  d="M0 0h36v56H0z"></path>
    <path fill-rule="evenodd" clip-rule="evenodd" d="M11 42h6.939L26 28l-8.061-14H11l8.061 14L11 42z" fill="#fff"></path>
  </symbol>
  <symbol xmlns="http://www.w3.org/2000/svg" viewBox="0 0 24 17" id="photo-icon">
    <path d="M21.114 3.5h-3.47v-.357A2.886 2.886 0 0014.759.258H9.24a2.886 2.886 0 00-2.885 2.885V3.5h-3.47A2.885 2.885 0 000 6.385v10.472a2.886 2.886 0 002.885 2.885h18.23A2.886 2.886 0 0024 16.857V6.385A2.887 2.887 0 0021.114 3.5zm-9.115 13.25a5.455 5.455 0 01-5.45-5.45A5.455 5.455 0 0112 5.85a5.455 5.455 0 015.45 5.45A5.455 5.455 0 0112 16.75zm2.885-5.45a2.89 2.89 0 01-2.885 2.885A2.89 2.89 0 019.114 11.3a2.89 2.89 0 012.885-2.885 2.89 2.89 0 012.885 2.885z" ></path>
  </symbol>
  <symbol xmlns="http://www.w3.org/2000/svg" viewBox="0 0 24 17" id="video-icon">
    <path d="M23.506 2.63A3.007 3.007 0 0021.39.513C19.512 0 12 0 12 0S4.488 0 2.61.494A3.068 3.068 0 00.493 2.63C0 4.507 0 8.402 0 8.402s0 3.914.494 5.772A3.007 3.007 0 002.61 16.29c1.897.514 9.39.514 9.39.514s7.512 0 9.39-.494a3.007 3.007 0 002.116-2.116C24 12.316 24 8.422 24 8.422s.02-3.915-.494-5.793zM9.608 12V4.804l6.247 3.598L9.608 12z"></path>
  </symbol>
  <symbol  xmlns="http://www.w3.org/2000/svg" viewBox="0 0 175 175" id="SN-bg-element">
    <path opacity=".8" d="M111.265 175L175 110.725l-23.225-87.5L64.275 0 0 63.735l23.765 87.5 87.5 23.765z" ></path>
  </symbol>
  <symbol xmlns="http://www.w3.org/2000/svg" viewBox="0 0 10 17" id="Subtract">
    <path fill-rule="evenodd" clip-rule="evenodd" d="M0 0h4.213l4.894 8.5L4.213 17H0l4.894-8.5L0 0z" ></path>
  </symbol>
</svg>