<svg width="24" height="20" viewBox="0 0 24 20" fill="none" xmlns="http://www.w3.org/2000/svg">
<path d="M21.1136 3.49985H17.6439V3.14338C17.6439 1.55082 16.3513 0.258301 14.7588 0.258301H9.24058C7.64738 0.258301 6.35551 1.55082 6.35551 3.14338V3.49985H2.88508C1.29187 3.49985 0 4.79172 0 6.38492V16.8571C0 18.4497 1.29187 19.7422 2.88508 19.7422H21.1149C22.7081 19.7422 24 18.4497 24 16.8571V6.38492C23.9987 4.79108 22.7068 3.49985 21.1136 3.49985ZM11.9987 16.7494C8.99311 16.7494 6.54913 14.3054 6.54913 11.2998C6.54913 8.29484 8.99311 5.85022 11.9987 5.85022C15.0043 5.85022 17.4483 8.2942 17.4483 11.2998C17.4483 14.3054 15.0037 16.7494 11.9987 16.7494ZM14.8838 11.2998C14.8838 12.8892 13.5887 14.1849 11.9987 14.1849C10.4087 14.1849 9.11364 12.8892 9.11364 11.2998C9.11364 9.70982 10.4087 8.41473 11.9987 8.41473C13.5887 8.41473 14.8838 9.70982 14.8838 11.2998Z" fill="#B2C6D0"/>
</svg>
